<svg width="46" height="35" viewBox="0 0 46 35" fill="none" xmlns="http://www.w3.org/2000/svg">
<path d="M1.59619 28.0234V33H0.485352V28.0234H1.59619ZM3.87133 30.0913V33H2.8015V29.3018H3.80639L3.87133 30.0913ZM3.73119 31.021L3.46459 31.0278C3.46459 30.7498 3.49877 30.5003 3.56713 30.2793C3.63549 30.0583 3.73233 29.8703 3.85766 29.7153C3.98526 29.5581 4.13679 29.4385 4.31225 29.3564C4.48998 29.2744 4.68594 29.2334 4.90014 29.2334C5.07331 29.2334 5.23168 29.2585 5.37523 29.3086C5.51879 29.3587 5.64184 29.4396 5.74437 29.5513C5.84919 29.6606 5.92895 29.8065 5.98363 29.9888C6.03832 30.1688 6.06566 30.391 6.06566 30.6553V33H4.99242V30.6519C4.99242 30.4969 4.97077 30.3773 4.92748 30.293C4.88419 30.2087 4.82038 30.1494 4.73607 30.1152C4.65404 30.0811 4.55378 30.064 4.43529 30.064C4.30997 30.064 4.20287 30.089 4.114 30.1392C4.02514 30.187 3.95222 30.2542 3.89525 30.3408C3.83829 30.4274 3.79613 30.5288 3.76879 30.645C3.74372 30.7612 3.73119 30.8866 3.73119 31.021ZM9.30125 32.1729V27.75H10.3745V33H9.41062L9.30125 32.1729ZM6.99754 31.1953V31.1235C6.99754 30.8433 7.0283 30.5881 7.08982 30.3579C7.15363 30.1255 7.24591 29.9261 7.36668 29.7598C7.48973 29.5911 7.64126 29.4613 7.82127 29.3701C8.00128 29.279 8.2075 29.2334 8.43992 29.2334C8.65411 29.2334 8.84096 29.2812 9.00047 29.377C9.15997 29.4704 9.29555 29.6025 9.40721 29.7734C9.52114 29.9421 9.61342 30.1414 9.68406 30.3716C9.7547 30.5994 9.80825 30.8467 9.84471 31.1133V31.2363C9.81053 31.4915 9.75698 31.7297 9.68406 31.9507C9.61342 32.1717 9.52114 32.3665 9.40721 32.5352C9.29555 32.7015 9.15883 32.8325 8.99705 32.9282C8.83755 33.0216 8.64956 33.0684 8.43309 33.0684C8.20066 33.0684 7.99445 33.0216 7.81443 32.9282C7.6367 32.8348 7.48745 32.7038 7.36668 32.5352C7.24591 32.3665 7.15363 32.1683 7.08982 31.9404C7.0283 31.7126 6.99754 31.4642 6.99754 31.1953ZM8.06395 31.1235V31.1953C8.06395 31.3411 8.0742 31.4767 8.09471 31.6021C8.11749 31.7274 8.15395 31.8379 8.20408 31.9336C8.25421 32.0293 8.32029 32.1045 8.40232 32.1592C8.48436 32.2116 8.58462 32.2378 8.70311 32.2378C8.86261 32.2378 8.99363 32.2013 9.09617 32.1284C9.19871 32.0532 9.27618 31.9495 9.32859 31.8174C9.381 31.6852 9.40835 31.5314 9.41062 31.356V30.9971C9.41062 30.8512 9.39581 30.7202 9.36619 30.604C9.33657 30.4878 9.29214 30.3898 9.23289 30.3101C9.17592 30.2303 9.10415 30.1699 9.01756 30.1289C8.93097 30.0856 8.82843 30.064 8.70994 30.064C8.59373 30.064 8.49461 30.0913 8.41258 30.146C8.33055 30.1984 8.26333 30.2725 8.21092 30.3682C8.16079 30.4639 8.12319 30.5767 8.09812 30.7065C8.07534 30.8341 8.06395 30.9731 8.06395 31.1235ZM13.4392 31.9712C13.4392 31.9028 13.4175 31.8424 13.3742 31.79C13.3332 31.7376 13.258 31.6898 13.1487 31.6465C13.0416 31.6032 12.89 31.5599 12.6941 31.5166C12.5095 31.4779 12.3375 31.4277 12.1779 31.3662C12.0184 31.3024 11.8794 31.2261 11.761 31.1372C11.6425 31.0461 11.5502 30.939 11.4841 30.8159C11.418 30.6906 11.385 30.5482 11.385 30.3887C11.385 30.2337 11.418 30.0868 11.4841 29.9478C11.5525 29.8088 11.6504 29.6857 11.778 29.5786C11.9079 29.4715 12.0652 29.3872 12.2497 29.3257C12.4366 29.2642 12.6485 29.2334 12.8855 29.2334C13.2113 29.2334 13.4927 29.2847 13.7297 29.3872C13.9667 29.4875 14.149 29.6287 14.2766 29.811C14.4042 29.991 14.468 30.1973 14.468 30.4297H13.4016C13.4016 30.334 13.3834 30.2508 13.3469 30.1802C13.3104 30.1095 13.2546 30.0549 13.1794 30.0161C13.1042 29.9751 13.0051 29.9546 12.8821 29.9546C12.7863 29.9546 12.702 29.9717 12.6291 30.0059C12.5585 30.0378 12.5027 30.0822 12.4616 30.1392C12.4229 30.1961 12.4035 30.2622 12.4035 30.3374C12.4035 30.3898 12.4149 30.4377 12.4377 30.481C12.4628 30.522 12.5004 30.5607 12.5505 30.5972C12.6029 30.6313 12.6701 30.6621 12.7522 30.6895C12.8365 30.7168 12.939 30.743 13.0598 30.7681C13.3173 30.8159 13.552 30.8831 13.7639 30.9697C13.9781 31.0563 14.149 31.1759 14.2766 31.3286C14.4065 31.4813 14.4714 31.6829 14.4714 31.9336C14.4714 32.0977 14.4338 32.248 14.3586 32.3848C14.2857 32.5215 14.1797 32.6411 14.0407 32.7437C13.9017 32.8462 13.7354 32.9259 13.5417 32.9829C13.348 33.0399 13.1293 33.0684 12.8855 33.0684C12.5368 33.0684 12.2418 33.0057 12.0002 32.8804C11.7587 32.755 11.5764 32.5978 11.4533 32.4087C11.3326 32.2173 11.2722 32.0213 11.2722 31.8208H12.2737C12.2782 31.9438 12.309 32.0441 12.3659 32.1216C12.4252 32.1991 12.5015 32.256 12.5949 32.2925C12.6884 32.3267 12.7932 32.3438 12.9094 32.3438C13.0256 32.3438 13.1224 32.3278 13.1999 32.2959C13.2774 32.264 13.3366 32.2207 13.3777 32.166C13.4187 32.109 13.4392 32.0441 13.4392 31.9712ZM17.331 29.3018V30.0503H15.1367V29.3018H17.331ZM15.6391 28.3857H16.7089V31.8413C16.7089 31.9438 16.7215 32.0225 16.7465 32.0771C16.7716 32.1318 16.8126 32.1706 16.8696 32.1934C16.9266 32.2139 16.9995 32.2241 17.0883 32.2241C17.1521 32.2241 17.2068 32.2218 17.2524 32.2173C17.298 32.2127 17.3401 32.207 17.3789 32.2002V32.9727C17.2877 33.0023 17.1909 33.0251 17.0883 33.041C16.9858 33.0592 16.8741 33.0684 16.7534 33.0684C16.5232 33.0684 16.3239 33.0308 16.1552 32.9556C15.9889 32.8804 15.8613 32.7619 15.7724 32.6001C15.6836 32.436 15.6391 32.223 15.6391 31.9609V28.3857ZM19.3532 29.3018V33H18.2834V29.3018H19.3532ZM18.2185 28.3447C18.2185 28.1898 18.2731 28.0633 18.3825 27.9653C18.4919 27.8651 18.6354 27.8149 18.8132 27.8149C18.9909 27.8149 19.1345 27.8651 19.2438 27.9653C19.3555 28.0633 19.4113 28.1898 19.4113 28.3447C19.4113 28.4974 19.3555 28.6239 19.2438 28.7241C19.1345 28.8221 18.9909 28.8711 18.8132 28.8711C18.6354 28.8711 18.4919 28.8221 18.3825 28.7241C18.2731 28.6239 18.2185 28.4974 18.2185 28.3447ZM21.6318 27.75V33H20.562V27.75H21.6318ZM23.9103 27.75V33H22.8405V27.75H23.9103ZM26.1889 29.3018V33H25.1191V29.3018H26.1889ZM25.0541 28.3447C25.0541 28.1898 25.1088 28.0633 25.2182 27.9653C25.3276 27.8651 25.4711 27.8149 25.6488 27.8149C25.8266 27.8149 25.9701 27.8651 26.0795 27.9653C26.1912 28.0633 26.247 28.1898 26.247 28.3447C26.247 28.4974 26.1912 28.6239 26.0795 28.7241C25.9701 28.8221 25.8266 28.8711 25.6488 28.8711C25.4711 28.8711 25.3276 28.8221 25.2182 28.7241C25.1088 28.6239 25.0541 28.4974 25.0541 28.3447ZM28.3888 30.0913V33H27.319V29.3018H28.3239L28.3888 30.0913ZM28.2487 31.021L27.9821 31.0278C27.9821 30.7498 28.0163 30.5003 28.0846 30.2793C28.153 30.0583 28.2498 29.8703 28.3752 29.7153C28.5028 29.5581 28.6543 29.4385 28.8297 29.3564C29.0075 29.2744 29.2034 29.2334 29.4176 29.2334C29.5908 29.2334 29.7492 29.2585 29.8927 29.3086C30.0363 29.3587 30.1593 29.4396 30.2619 29.5513C30.3667 29.6606 30.4464 29.8065 30.5011 29.9888C30.5558 30.1688 30.5832 30.391 30.5832 30.6553V33H29.5099V30.6519C29.5099 30.4969 29.4883 30.3773 29.445 30.293C29.4017 30.2087 29.3379 30.1494 29.2536 30.1152C29.1715 30.0811 29.0713 30.064 28.9528 30.064C28.8275 30.064 28.7204 30.089 28.6315 30.1392C28.5426 30.187 28.4697 30.2542 28.4128 30.3408C28.3558 30.4274 28.3136 30.5288 28.2863 30.645C28.2612 30.7612 28.2487 30.8866 28.2487 31.021ZM33.9965 29.3018H34.9672V32.8667C34.9672 33.2062 34.8897 33.4945 34.7348 33.7314C34.5821 33.9684 34.369 34.1484 34.0956 34.2715C33.8222 34.3945 33.502 34.4561 33.1352 34.4561C32.9757 34.4561 32.8093 34.4344 32.6361 34.3911C32.463 34.3501 32.3 34.2874 32.1474 34.2031C31.9947 34.1211 31.8671 34.0163 31.7646 33.8887L32.2191 33.2598C32.324 33.3783 32.4493 33.474 32.5951 33.5469C32.741 33.6221 32.9073 33.6597 33.0941 33.6597C33.265 33.6597 33.4097 33.6289 33.5282 33.5674C33.6467 33.5059 33.7367 33.4159 33.7982 33.2974C33.862 33.1789 33.8939 33.0353 33.8939 32.8667V30.1665L33.9965 29.3018ZM31.5253 31.1953V31.1235C31.5253 30.8433 31.5595 30.5881 31.6278 30.3579C31.6962 30.1255 31.7953 29.9261 31.9252 29.7598C32.0574 29.5911 32.2157 29.4613 32.4003 29.3701C32.5871 29.279 32.7968 29.2334 33.0292 29.2334C33.2799 29.2334 33.4872 29.2812 33.6513 29.377C33.8153 29.4704 33.9486 29.6025 34.0512 29.7734C34.1537 29.9421 34.2346 30.1414 34.2938 30.3716C34.3531 30.5994 34.4009 30.8467 34.4374 31.1133V31.2363C34.4009 31.4915 34.3485 31.7297 34.2802 31.9507C34.2118 32.1717 34.1229 32.3665 34.0136 32.5352C33.9042 32.7015 33.7675 32.8325 33.6034 32.9282C33.4416 33.0216 33.2479 33.0684 33.0224 33.0684C32.7922 33.0684 32.5849 33.0216 32.4003 32.9282C32.2157 32.8348 32.0574 32.7038 31.9252 32.5352C31.7953 32.3665 31.6962 32.1683 31.6278 31.9404C31.5595 31.7126 31.5253 31.4642 31.5253 31.1953ZM32.5917 31.1235V31.1953C32.5917 31.3411 32.6054 31.4767 32.6327 31.6021C32.6623 31.7274 32.7056 31.8379 32.7626 31.9336C32.8218 32.0293 32.8948 32.1045 32.9813 32.1592C33.0702 32.2116 33.1739 32.2378 33.2924 32.2378C33.4656 32.2378 33.6057 32.2013 33.7128 32.1284C33.8222 32.0532 33.9019 31.9495 33.9521 31.8174C34.0045 31.6852 34.0318 31.5314 34.0341 31.356V30.9971C34.0341 30.8512 34.0193 30.7202 33.9896 30.604C33.96 30.4878 33.9156 30.3898 33.8563 30.3101C33.7994 30.2303 33.7242 30.1699 33.6308 30.1289C33.5396 30.0856 33.4291 30.064 33.2992 30.064C33.183 30.064 33.0805 30.0913 32.9916 30.146C32.9027 30.1984 32.8287 30.2725 32.7694 30.3682C32.7102 30.4639 32.6658 30.5767 32.6361 30.7065C32.6065 30.8341 32.5917 30.9731 32.5917 31.1235ZM37.8063 33.0684C37.5123 33.0684 37.2492 33.0216 37.0167 32.9282C36.7843 32.8348 36.5872 32.7061 36.4254 32.542C36.2659 32.3757 36.144 32.1842 36.0597 31.9678C35.9754 31.7513 35.9332 31.52 35.9332 31.2739V31.144C35.9332 30.8683 35.972 30.6143 36.0495 30.3818C36.1269 30.1494 36.2397 29.9478 36.3878 29.7769C36.5382 29.6037 36.7228 29.4704 36.9415 29.377C37.1603 29.2812 37.4098 29.2334 37.6901 29.2334C37.9521 29.2334 38.1857 29.2767 38.3908 29.3633C38.5958 29.4476 38.769 29.5695 38.9103 29.729C39.0516 29.8862 39.1587 30.0765 39.2316 30.2998C39.3068 30.5208 39.3444 30.7692 39.3444 31.0449V31.4824H36.3639V30.7954H38.2985V30.7134C38.2985 30.5835 38.2746 30.4696 38.2267 30.3716C38.1811 30.2736 38.1128 30.1984 38.0216 30.146C37.9328 30.0913 37.82 30.064 37.6832 30.064C37.5534 30.064 37.4451 30.0913 37.3585 30.146C37.2719 30.2007 37.2024 30.2782 37.15 30.3784C37.0999 30.4764 37.0635 30.5915 37.0407 30.7236C37.0179 30.8535 37.0065 30.9937 37.0065 31.144V31.2739C37.0065 31.4175 37.0259 31.5485 37.0646 31.667C37.1033 31.7855 37.1603 31.8869 37.2355 31.9712C37.3107 32.0555 37.4018 32.1216 37.5089 32.1694C37.616 32.2173 37.7379 32.2412 37.8746 32.2412C38.0433 32.2412 38.2039 32.2093 38.3566 32.1455C38.5093 32.0794 38.6414 31.9769 38.7531 31.8379L39.2521 32.4087C39.1769 32.5181 39.0709 32.624 38.9342 32.7266C38.7998 32.8268 38.638 32.9089 38.4489 32.9727C38.2597 33.0365 38.0455 33.0684 37.8063 33.0684ZM41.3187 30.1631V33H40.2523V29.3018H41.2538L41.3187 30.1631ZM42.4227 29.2744L42.4056 30.269C42.3601 30.2622 42.3008 30.2565 42.2279 30.252C42.155 30.2451 42.0923 30.2417 42.0399 30.2417C41.9032 30.2417 41.7847 30.2588 41.6845 30.293C41.5865 30.3249 41.5044 30.3727 41.4384 30.4365C41.3746 30.5003 41.3267 30.5801 41.2948 30.6758C41.2629 30.7692 41.247 30.8774 41.247 31.0005L41.0453 30.9014C41.0453 30.6576 41.0692 30.4342 41.1171 30.2314C41.1649 30.0286 41.2344 29.8532 41.3256 29.7051C41.4167 29.5547 41.5284 29.4385 41.6605 29.3564C41.7927 29.2744 41.9431 29.2334 42.1117 29.2334C42.1664 29.2334 42.2222 29.2368 42.2792 29.2437C42.3361 29.2505 42.384 29.2607 42.4227 29.2744Z" fill="black"/>
<path d="M18.0654 23.913C16.1976 23.3245 14.506 22.2355 13.1552 20.7521C13.5898 20.2081 13.8607 19.5396 13.9333 18.8321C14.0059 18.1247 13.8768 17.4105 13.5626 16.7809C13.2484 16.1513 12.7633 15.6349 12.1695 15.298C11.5757 14.961 10.9001 14.8186 10.2292 14.8892C10.0764 14.099 9.9996 13.2946 10 12.4881C10 11.2426 10.1807 10.0411 10.5172 8.91241H10.5646C11.1404 8.91261 11.7068 8.75791 12.2102 8.46292C12.7136 8.16793 13.1375 7.74238 13.4418 7.22647C13.7461 6.71055 13.9208 6.12129 13.9494 5.51431C13.978 4.90734 13.8596 4.30269 13.6052 3.75746C14.9291 2.45639 16.5301 1.51062 18.2731 1C18.5568 1.58785 18.989 2.08141 19.522 2.42608C20.0549 2.77075 20.6678 2.95309 21.2929 2.95292C21.9179 2.95309 22.5308 2.77075 23.0637 2.42608C23.5967 2.08141 24.0289 1.58785 24.3126 1C26.0556 1.51062 27.6566 2.45639 28.9805 3.75746C28.7243 4.30651 28.6059 4.91577 28.6367 5.52692C28.6675 6.13807 28.8464 6.73065 29.1563 7.24794C29.4662 7.76524 29.8967 8.18992 30.4066 8.48136C30.9165 8.77279 31.4887 8.92121 32.0685 8.91241C32.4123 10.0696 32.5868 11.2754 32.5857 12.4881C32.5857 13.3105 32.5067 14.1139 32.3565 14.8892C31.6856 14.8186 31.01 14.961 30.4162 15.298C29.8224 15.6349 29.3373 16.1513 29.0231 16.7809C28.7089 17.4105 28.5798 18.1247 28.6524 18.8321C28.725 19.5396 28.9959 20.2081 29.4305 20.7521C28.0798 22.2355 26.3882 23.3245 24.5204 23.913C24.301 23.1915 23.8703 22.5621 23.2902 22.1156C22.7102 21.6691 22.0108 21.4285 21.2929 21.4285C20.5749 21.4285 19.8755 21.6691 19.2955 22.1156C18.7154 22.5621 18.2847 23.1915 18.0654 23.913Z" stroke="black" stroke-width="2" stroke-linejoin="round"/>
<path d="M21.2928 16.6598C21.8119 16.6598 22.3258 16.5518 22.8054 16.3422C23.2849 16.1326 23.7206 15.8253 24.0877 15.4379C24.4547 15.0505 24.7458 14.5907 24.9445 14.0845C25.1431 13.5784 25.2453 13.0359 25.2453 12.4881C25.2453 11.9403 25.1431 11.3978 24.9445 10.8917C24.7458 10.3856 24.4547 9.92569 24.0877 9.53831C23.7206 9.15094 23.2849 8.84366 22.8054 8.63401C22.3258 8.42437 21.8119 8.31647 21.2928 8.31647C20.2446 8.31647 19.2392 8.75598 18.498 9.53831C17.7568 10.3206 17.3403 11.3817 17.3403 12.4881C17.3403 13.5945 17.7568 14.6556 18.498 15.4379C19.2392 16.2202 20.2446 16.6598 21.2928 16.6598V16.6598Z" stroke="black" stroke-width="2" stroke-linejoin="round"/>
</svg>
