<svg width="64" height="21" viewBox="0 0 64 21" fill="none" xmlns="http://www.w3.org/2000/svg">
<g filter="url(#filter0_d_371_916)">
<path d="M9.46826 9.63428L11.8413 1.33594H14.5L10.8452 12H9.10938L9.46826 9.63428ZM7.30762 1.33594L9.67334 9.63428L10.0469 12H8.28906L4.65625 1.33594H7.30762ZM15.4275 8.11816V7.96436C15.4275 7.3833 15.5105 6.84863 15.6766 6.36035C15.8426 5.86719 16.0867 5.43994 16.409 5.07861C16.7312 4.71729 17.1268 4.43652 17.5955 4.23633C18.0643 4.03125 18.6014 3.92871 19.2068 3.92871C19.8221 3.92871 20.3641 4.03125 20.8328 4.23633C21.3064 4.43652 21.7044 4.71729 22.0267 5.07861C22.3489 5.43994 22.5931 5.86719 22.7591 6.36035C22.9251 6.84863 23.0081 7.3833 23.0081 7.96436V8.11816C23.0081 8.69434 22.9251 9.229 22.7591 9.72217C22.5931 10.2104 22.3489 10.6377 22.0267 11.0039C21.7044 11.3652 21.3089 11.646 20.8401 11.8462C20.3714 12.0464 19.8318 12.1465 19.2215 12.1465C18.616 12.1465 18.0765 12.0464 17.6028 11.8462C17.1292 11.646 16.7312 11.3652 16.409 11.0039C16.0867 10.6377 15.8426 10.2104 15.6766 9.72217C15.5105 9.229 15.4275 8.69434 15.4275 8.11816ZM17.72 7.96436V8.11816C17.72 8.43066 17.7444 8.72363 17.7933 8.99707C17.847 9.27051 17.9324 9.50977 18.0496 9.71484C18.1668 9.91992 18.3206 10.0811 18.511 10.1982C18.7063 10.3105 18.9432 10.3667 19.2215 10.3667C19.4998 10.3667 19.7342 10.3105 19.9246 10.1982C20.115 10.0811 20.2688 9.91992 20.386 9.71484C20.5032 9.50977 20.5862 9.27051 20.6351 8.99707C20.6888 8.72363 20.7156 8.43066 20.7156 8.11816V7.96436C20.7156 7.65674 20.6888 7.36865 20.6351 7.1001C20.5862 6.82666 20.5032 6.58496 20.386 6.375C20.2688 6.16504 20.1126 6.00146 19.9173 5.88428C19.7269 5.76709 19.49 5.7085 19.2068 5.7085C18.9334 5.7085 18.7015 5.76709 18.511 5.88428C18.3206 6.00146 18.1668 6.16504 18.0496 6.375C17.9324 6.58496 17.847 6.82666 17.7933 7.1001C17.7444 7.36865 17.72 7.65674 17.72 7.96436ZM27.4439 0.75V12H25.1515V0.75H27.4439ZM34.5678 10.0884V4.0752H36.8676V12H34.7143L34.5678 10.0884ZM34.8095 8.46973L35.4394 8.45508C35.4394 8.9873 35.3759 9.47803 35.2489 9.92725C35.1269 10.3765 34.9413 10.7671 34.6923 11.0991C34.4481 11.4312 34.143 11.6899 33.7768 11.8755C33.4154 12.0562 32.9931 12.1465 32.5097 12.1465C32.119 12.1465 31.7602 12.0928 31.433 11.9854C31.1107 11.873 30.8324 11.6997 30.598 11.4653C30.3637 11.2261 30.183 10.9209 30.0561 10.5498C29.9291 10.1738 29.8656 9.72461 29.8656 9.20215V4.0752H32.1508V9.2168C32.1508 9.42188 32.1752 9.59766 32.224 9.74414C32.2777 9.88574 32.3485 10.0029 32.4364 10.0957C32.5292 10.1885 32.6415 10.2568 32.7733 10.3008C32.9101 10.3447 33.059 10.3667 33.2201 10.3667C33.6254 10.3667 33.9428 10.2837 34.1723 10.1177C34.4066 9.94678 34.5702 9.71973 34.663 9.43652C34.7606 9.14844 34.8095 8.82617 34.8095 8.46973ZM41.4719 5.73779V12H39.1867V4.0752H41.3327L41.4719 5.73779ZM41.1789 7.75928L40.6003 7.77393C40.6003 7.21729 40.6662 6.70703 40.798 6.24316C40.9348 5.77441 41.1325 5.3667 41.3913 5.02002C41.6501 4.67334 41.9699 4.40479 42.3508 4.21436C42.7365 4.02393 43.1809 3.92871 43.6838 3.92871C44.0354 3.92871 44.3552 3.98242 44.6433 4.08984C44.9314 4.19238 45.1779 4.35596 45.383 4.58057C45.593 4.80029 45.7541 5.08838 45.8664 5.44482C45.9787 5.79639 46.0349 6.21875 46.0349 6.71191V12H43.7497V6.99023C43.7497 6.63867 43.7058 6.37256 43.6179 6.19189C43.5349 6.00635 43.4128 5.87939 43.2517 5.81104C43.0905 5.74268 42.8977 5.7085 42.673 5.7085C42.4289 5.7085 42.2116 5.76221 42.0212 5.86963C41.8356 5.97217 41.6794 6.11621 41.5524 6.30176C41.4255 6.4873 41.3303 6.70459 41.2668 6.95361C41.2082 7.20264 41.1789 7.47119 41.1789 7.75928ZM45.8005 7.64209L45.0754 7.70068C45.0754 7.16357 45.1389 6.66553 45.2658 6.20654C45.3928 5.74756 45.5832 5.34961 45.8371 5.0127C46.091 4.6709 46.406 4.40479 46.7819 4.21436C47.1628 4.02393 47.6047 3.92871 48.1076 3.92871C48.4787 3.92871 48.8156 3.98242 49.1184 4.08984C49.426 4.19727 49.6897 4.37061 49.9094 4.60986C50.134 4.84912 50.3073 5.16406 50.4294 5.55469C50.5515 5.94043 50.6125 6.41406 50.6125 6.97559V12H48.3127V6.97559C48.3127 6.62891 48.2688 6.36523 48.1809 6.18457C48.0979 6.00391 47.9758 5.87939 47.8147 5.81104C47.6584 5.74268 47.4704 5.7085 47.2507 5.7085C47.0065 5.7085 46.7941 5.75977 46.6135 5.8623C46.4328 5.95996 46.2814 6.09668 46.1594 6.27246C46.0373 6.44336 45.947 6.646 45.8884 6.88037C45.8298 7.11475 45.8005 7.36865 45.8005 7.64209ZM56.7036 12.1465C56.0737 12.1465 55.5098 12.0464 55.0117 11.8462C54.5137 11.646 54.0913 11.3701 53.7446 11.0186C53.4028 10.6621 53.1416 10.252 52.9609 9.78809C52.7803 9.32422 52.6899 8.82861 52.6899 8.30127V8.02295C52.6899 7.43213 52.7729 6.8877 52.939 6.38965C53.105 5.8916 53.3467 5.45947 53.6641 5.09326C53.9863 4.72217 54.3818 4.43652 54.8506 4.23633C55.3193 4.03125 55.854 3.92871 56.4546 3.92871C57.0161 3.92871 57.5166 4.02148 57.9561 4.20703C58.3955 4.3877 58.7666 4.64893 59.0693 4.99072C59.3721 5.32764 59.6016 5.73535 59.7578 6.21387C59.9189 6.6875 59.9995 7.21973 59.9995 7.81055V8.74805H53.6128V7.27588H57.7583V7.1001C57.7583 6.82178 57.707 6.57764 57.6045 6.36768C57.5068 6.15771 57.3604 5.99658 57.165 5.88428C56.9746 5.76709 56.7329 5.7085 56.4399 5.7085C56.1616 5.7085 55.9297 5.76709 55.7441 5.88428C55.5586 6.00146 55.4097 6.16748 55.2974 6.38232C55.1899 6.59229 55.1118 6.83887 55.063 7.12207C55.0142 7.40039 54.9897 7.70068 54.9897 8.02295V8.30127C54.9897 8.60889 55.0312 8.88965 55.1143 9.14355C55.1973 9.39746 55.3193 9.61475 55.4805 9.79541C55.6416 9.97607 55.8369 10.1177 56.0664 10.2202C56.2959 10.3228 56.5571 10.374 56.8501 10.374C57.2114 10.374 57.5557 10.3057 57.8828 10.1689C58.21 10.0273 58.4932 9.80762 58.7324 9.50977L59.8018 10.7329C59.6406 10.9673 59.4136 11.1943 59.1206 11.4141C58.8325 11.6289 58.4858 11.8047 58.0806 11.9414C57.6753 12.0781 57.2163 12.1465 56.7036 12.1465Z" fill="white"/>
</g>
<defs>
<filter id="filter0_d_371_916" x="0.65625" y="0.75" width="63.3433" height="19.3965" filterUnits="userSpaceOnUse" color-interpolation-filters="sRGB">
<feFlood flood-opacity="0" result="BackgroundImageFix"/>
<feColorMatrix in="SourceAlpha" type="matrix" values="0 0 0 0 0 0 0 0 0 0 0 0 0 0 0 0 0 0 127 0" result="hardAlpha"/>
<feOffset dy="4"/>
<feGaussianBlur stdDeviation="2"/>
<feComposite in2="hardAlpha" operator="out"/>
<feColorMatrix type="matrix" values="0 0 0 0 0 0 0 0 0 0 0 0 0 0 0 0 0 0 0.25 0"/>
<feBlend mode="normal" in2="BackgroundImageFix" result="effect1_dropShadow_371_916"/>
<feBlend mode="normal" in="SourceGraphic" in2="effect1_dropShadow_371_916" result="shape"/>
</filter>
</defs>
</svg>
